<svg xmlns="http://www.w3.org/2000/svg" xmlns:xlink="http://www.w3.org/1999/xlink" width="1080" zoomAndPan="magnify" viewBox="0 0 810 809.999993" height="1080" preserveAspectRatio="xMidYMid meet" version="1.0"><defs><clipPath id="6953447775"><path d="M 103.066406 263.039062 L 286.066406 263.039062 L 286.066406 446.039062 L 103.066406 446.039062 Z M 103.066406 263.039062 " clip-rule="nonzero"/></clipPath><clipPath id="b0420c0d8c"><path d="M 523.914062 263.039062 L 706.914062 263.039062 L 706.914062 446.039062 L 523.914062 446.039062 Z M 523.914062 263.039062 " clip-rule="nonzero"/></clipPath><clipPath id="18a2769033"><path d="M 194.578125 513.34375 L 377.578125 513.34375 L 377.578125 696.34375 L 194.578125 696.34375 Z M 194.578125 513.34375 " clip-rule="nonzero"/></clipPath><clipPath id="d8012376e2"><path d="M 449.464844 513.34375 L 632.464844 513.34375 L 632.464844 696.34375 L 449.464844 696.34375 Z M 449.464844 513.34375 " clip-rule="nonzero"/></clipPath><clipPath id="40dbc65d21"><path d="M 313.492188 113.636719 L 496.492188 113.636719 L 496.492188 296.636719 L 313.492188 296.636719 Z M 313.492188 113.636719 " clip-rule="nonzero"/></clipPath></defs><g clip-path="url(#6953447775)"><path fill="#4d91eb" d="M 286.066406 354.539062 C 286.066406 356.039062 286.03125 357.535156 285.957031 359.03125 C 285.882812 360.527344 285.773438 362.019531 285.625 363.507812 C 285.480469 365 285.296875 366.484375 285.078125 367.964844 C 284.855469 369.449219 284.601562 370.921875 284.308594 372.390625 C 284.015625 373.859375 283.6875 375.320312 283.324219 376.773438 C 282.960938 378.226562 282.5625 379.667969 282.128906 381.101562 C 281.691406 382.535156 281.222656 383.957031 280.71875 385.367188 C 280.214844 386.777344 279.675781 388.171875 279.101562 389.554688 C 278.527344 390.941406 277.921875 392.308594 277.28125 393.660156 C 276.640625 395.015625 275.96875 396.351562 275.261719 397.671875 C 274.558594 398.992188 273.820312 400.296875 273.050781 401.582031 C 272.28125 402.867188 271.480469 404.128906 270.648438 405.375 C 269.816406 406.621094 268.953125 407.84375 268.0625 409.046875 C 267.167969 410.25 266.246094 411.429688 265.296875 412.585938 C 264.347656 413.746094 263.371094 414.878906 262.363281 415.988281 C 261.359375 417.097656 260.328125 418.183594 259.269531 419.242188 C 258.207031 420.300781 257.125 421.332031 256.015625 422.335938 C 254.90625 423.34375 253.773438 424.320312 252.613281 425.269531 C 251.457031 426.222656 250.277344 427.140625 249.074219 428.035156 C 247.871094 428.925781 246.648438 429.789062 245.402344 430.621094 C 244.15625 431.453125 242.890625 432.253906 241.609375 433.023438 C 240.324219 433.792969 239.019531 434.53125 237.699219 435.238281 C 236.378906 435.941406 235.042969 436.617188 233.6875 437.253906 C 232.335938 437.894531 230.964844 438.503906 229.582031 439.074219 C 228.199219 439.648438 226.800781 440.1875 225.394531 440.691406 C 223.984375 441.195312 222.5625 441.664062 221.128906 442.101562 C 219.695312 442.535156 218.253906 442.933594 216.800781 443.296875 C 215.347656 443.664062 213.886719 443.992188 212.417969 444.28125 C 210.949219 444.574219 209.472656 444.832031 207.992188 445.050781 C 206.511719 445.269531 205.027344 445.453125 203.535156 445.601562 C 202.046875 445.746094 200.550781 445.855469 199.058594 445.929688 C 197.5625 446.003906 196.066406 446.039062 194.566406 446.039062 C 193.070312 446.039062 191.574219 446.003906 190.078125 445.929688 C 188.582031 445.855469 187.089844 445.746094 185.597656 445.601562 C 184.109375 445.453125 182.621094 445.269531 181.140625 445.050781 C 179.660156 444.832031 178.183594 444.574219 176.714844 444.28125 C 175.246094 443.992188 173.789062 443.664062 172.335938 443.296875 C 170.882812 442.933594 169.4375 442.535156 168.007812 442.101562 C 166.574219 441.664062 165.152344 441.195312 163.742188 440.691406 C 162.332031 440.1875 160.933594 439.648438 159.550781 439.074219 C 158.167969 438.503906 156.800781 437.894531 155.445312 437.253906 C 154.09375 436.617188 152.753906 435.941406 151.433594 435.238281 C 150.113281 434.53125 148.8125 433.792969 147.527344 433.023438 C 146.242188 432.253906 144.976562 431.453125 143.734375 430.621094 C 142.488281 429.789062 141.261719 428.925781 140.0625 428.035156 C 138.859375 427.140625 137.679688 426.222656 136.519531 425.269531 C 135.363281 424.320312 134.230469 423.34375 133.121094 422.335938 C 132.011719 421.332031 130.925781 420.300781 129.867188 419.242188 C 128.808594 418.183594 127.777344 417.097656 126.769531 415.988281 C 125.765625 414.878906 124.785156 413.746094 123.835938 412.585938 C 122.886719 411.429688 121.964844 410.25 121.074219 409.046875 C 120.183594 407.84375 119.320312 406.621094 118.488281 405.375 C 117.65625 404.128906 116.855469 402.867188 116.085938 401.582031 C 115.316406 400.296875 114.578125 398.992188 113.871094 397.671875 C 113.164062 396.351562 112.492188 395.015625 111.851562 393.660156 C 111.210938 392.308594 110.605469 390.941406 110.03125 389.554688 C 109.460938 388.171875 108.921875 386.777344 108.417969 385.367188 C 107.910156 383.957031 107.441406 382.535156 107.007812 381.101562 C 106.574219 379.667969 106.171875 378.226562 105.808594 376.773438 C 105.445312 375.320312 105.117188 373.859375 104.824219 372.390625 C 104.535156 370.921875 104.277344 369.449219 104.058594 367.964844 C 103.839844 366.484375 103.65625 365 103.507812 363.507812 C 103.359375 362.019531 103.25 360.527344 103.175781 359.03125 C 103.105469 357.535156 103.066406 356.039062 103.066406 354.539062 C 103.066406 353.042969 103.105469 351.546875 103.175781 350.050781 C 103.25 348.554688 103.359375 347.0625 103.507812 345.570312 C 103.65625 344.082031 103.839844 342.597656 104.058594 341.113281 C 104.277344 339.632812 104.535156 338.160156 104.824219 336.691406 C 105.117188 335.222656 105.445312 333.761719 105.808594 332.308594 C 106.171875 330.855469 106.574219 329.414062 107.007812 327.980469 C 107.441406 326.546875 107.910156 325.125 108.417969 323.714844 C 108.921875 322.304688 109.460938 320.910156 110.03125 319.523438 C 110.605469 318.140625 111.210938 316.773438 111.851562 315.417969 C 112.492188 314.066406 113.164062 312.730469 113.871094 311.40625 C 114.578125 310.085938 115.316406 308.785156 116.085938 307.5 C 116.855469 306.214844 117.65625 304.949219 118.488281 303.707031 C 119.320312 302.460938 120.183594 301.238281 121.074219 300.035156 C 121.964844 298.832031 122.886719 297.652344 123.835938 296.492188 C 124.785156 295.335938 125.765625 294.203125 126.769531 293.09375 C 127.777344 291.984375 128.808594 290.898438 129.867188 289.839844 C 130.925781 288.78125 132.011719 287.75 133.121094 286.742188 C 134.230469 285.738281 135.363281 284.761719 136.519531 283.808594 C 137.679688 282.859375 138.859375 281.9375 140.0625 281.046875 C 141.261719 280.15625 142.488281 279.292969 143.734375 278.460938 C 144.976562 277.628906 146.242188 276.828125 147.527344 276.058594 C 148.8125 275.289062 150.113281 274.550781 151.433594 273.84375 C 152.753906 273.140625 154.09375 272.464844 155.445312 271.824219 C 156.800781 271.183594 158.167969 270.578125 159.550781 270.003906 C 160.933594 269.433594 162.332031 268.894531 163.742188 268.390625 C 165.152344 267.886719 166.574219 267.414062 168.007812 266.980469 C 169.4375 266.546875 170.882812 266.148438 172.335938 265.78125 C 173.789062 265.417969 175.246094 265.089844 176.714844 264.796875 C 178.183594 264.507812 179.660156 264.25 181.140625 264.03125 C 182.621094 263.8125 184.109375 263.628906 185.597656 263.480469 C 187.089844 263.335938 188.582031 263.222656 190.078125 263.152344 C 191.574219 263.078125 193.070312 263.039062 194.566406 263.039062 C 196.066406 263.039062 197.5625 263.078125 199.058594 263.152344 C 200.550781 263.222656 202.046875 263.335938 203.535156 263.480469 C 205.027344 263.628906 206.511719 263.8125 207.992188 264.03125 C 209.472656 264.25 210.949219 264.507812 212.417969 264.796875 C 213.886719 265.089844 215.347656 265.417969 216.800781 265.78125 C 218.253906 266.148438 219.695312 266.546875 221.128906 266.980469 C 222.5625 267.414062 223.984375 267.886719 225.394531 268.390625 C 226.800781 268.894531 228.199219 269.433594 229.582031 270.003906 C 230.964844 270.578125 232.335938 271.183594 233.6875 271.824219 C 235.042969 272.464844 236.378906 273.140625 237.699219 273.84375 C 239.019531 274.550781 240.324219 275.289062 241.609375 276.058594 C 242.890625 276.828125 244.15625 277.628906 245.402344 278.460938 C 246.648438 279.292969 247.871094 280.15625 249.074219 281.046875 C 250.277344 281.9375 251.457031 282.859375 252.613281 283.808594 C 253.773438 284.761719 254.90625 285.738281 256.015625 286.742188 C 257.125 287.75 258.207031 288.78125 259.269531 289.839844 C 260.328125 290.898438 261.359375 291.984375 262.363281 293.09375 C 263.371094 294.203125 264.347656 295.335938 265.296875 296.492188 C 266.246094 297.652344 267.167969 298.832031 268.0625 300.035156 C 268.953125 301.238281 269.816406 302.460938 270.648438 303.707031 C 271.480469 304.949219 272.28125 306.214844 273.050781 307.5 C 273.820312 308.785156 274.558594 310.085938 275.261719 311.40625 C 275.96875 312.730469 276.640625 314.066406 277.28125 315.417969 C 277.921875 316.773438 278.527344 318.140625 279.101562 319.523438 C 279.675781 320.910156 280.214844 322.304688 280.71875 323.714844 C 281.222656 325.125 281.691406 326.546875 282.128906 327.980469 C 282.5625 329.414062 282.960938 330.855469 283.324219 332.308594 C 283.6875 333.761719 284.015625 335.222656 284.308594 336.691406 C 284.601562 338.160156 284.855469 339.632812 285.078125 341.113281 C 285.296875 342.597656 285.480469 344.082031 285.625 345.570312 C 285.773438 347.0625 285.882812 348.554688 285.957031 350.050781 C 286.03125 351.546875 286.066406 353.042969 286.066406 354.539062 Z M 286.066406 354.539062 " fill-opacity="1" fill-rule="nonzero"/></g><g clip-path="url(#b0420c0d8c)"><path fill="#5fbd5f" d="M 706.914062 354.539062 C 706.914062 356.039062 706.875 357.535156 706.804688 359.03125 C 706.730469 360.527344 706.621094 362.019531 706.472656 363.507812 C 706.324219 365 706.140625 366.484375 705.921875 367.964844 C 705.703125 369.449219 705.445312 370.921875 705.15625 372.390625 C 704.863281 373.859375 704.535156 375.320312 704.171875 376.773438 C 703.808594 378.226562 703.40625 379.667969 702.972656 381.101562 C 702.539062 382.535156 702.070312 383.957031 701.5625 385.367188 C 701.058594 386.777344 700.519531 388.171875 699.949219 389.554688 C 699.375 390.941406 698.769531 392.308594 698.128906 393.660156 C 697.488281 395.015625 696.816406 396.351562 696.109375 397.671875 C 695.402344 398.992188 694.664062 400.296875 693.894531 401.582031 C 693.125 402.867188 692.324219 404.128906 691.492188 405.375 C 690.660156 406.621094 689.796875 407.84375 688.90625 409.046875 C 688.015625 410.25 687.09375 411.429688 686.144531 412.585938 C 685.195312 413.746094 684.214844 414.878906 683.210938 415.988281 C 682.203125 417.097656 681.171875 418.183594 680.113281 419.242188 C 679.054688 420.300781 677.96875 421.332031 676.859375 422.335938 C 675.75 423.34375 674.617188 424.320312 673.460938 425.269531 C 672.300781 426.222656 671.121094 427.140625 669.917969 428.035156 C 668.71875 428.925781 667.492188 429.789062 666.246094 430.621094 C 665.003906 431.453125 663.738281 432.253906 662.453125 433.023438 C 661.167969 433.792969 659.867188 434.53125 658.546875 435.238281 C 657.226562 435.941406 655.886719 436.617188 654.535156 437.253906 C 653.179688 437.894531 651.8125 438.503906 650.429688 439.074219 C 649.046875 439.648438 647.648438 440.1875 646.238281 440.691406 C 644.828125 441.195312 643.40625 441.664062 641.972656 442.101562 C 640.542969 442.535156 639.097656 442.933594 637.644531 443.296875 C 636.191406 443.664062 634.734375 443.992188 633.265625 444.28125 C 631.796875 444.574219 630.320312 444.832031 628.839844 445.050781 C 627.359375 445.269531 625.871094 445.453125 624.382812 445.601562 C 622.890625 445.746094 621.398438 445.855469 619.902344 445.929688 C 618.40625 446.003906 616.910156 446.039062 615.414062 446.039062 C 613.914062 446.039062 612.417969 446.003906 610.921875 445.929688 C 609.429688 445.855469 607.933594 445.746094 606.445312 445.601562 C 604.953125 445.453125 603.46875 445.269531 601.988281 445.050781 C 600.507812 444.832031 599.03125 444.574219 597.5625 444.28125 C 596.09375 443.992188 594.632812 443.664062 593.179688 443.296875 C 591.726562 442.933594 590.285156 442.535156 588.851562 442.101562 C 587.417969 441.664062 585.996094 441.195312 584.585938 440.691406 C 583.179688 440.1875 581.78125 439.648438 580.398438 439.074219 C 579.015625 438.503906 577.644531 437.894531 576.292969 437.253906 C 574.9375 436.617188 573.601562 435.941406 572.28125 435.238281 C 570.960938 434.53125 569.65625 433.792969 568.371094 433.023438 C 567.089844 432.253906 565.824219 431.453125 564.578125 430.621094 C 563.332031 429.789062 562.109375 428.925781 560.90625 428.035156 C 559.703125 427.140625 558.523438 426.222656 557.367188 425.269531 C 556.207031 424.320312 555.074219 423.34375 553.964844 422.335938 C 552.855469 421.332031 551.773438 420.300781 550.714844 419.242188 C 549.652344 418.183594 548.621094 417.097656 547.617188 415.988281 C 546.609375 414.878906 545.632812 413.746094 544.683594 412.585938 C 543.734375 411.429688 542.8125 410.25 541.917969 409.046875 C 541.027344 407.84375 540.164062 406.621094 539.332031 405.375 C 538.5 404.128906 537.699219 402.867188 536.929688 401.582031 C 536.160156 400.296875 535.421875 398.992188 534.71875 397.671875 C 534.011719 396.351562 533.339844 395.015625 532.699219 393.660156 C 532.058594 392.308594 531.453125 390.941406 530.878906 389.554688 C 530.304688 388.171875 529.765625 386.777344 529.261719 385.367188 C 528.757812 383.957031 528.289062 382.535156 527.851562 381.101562 C 527.417969 379.667969 527.019531 378.226562 526.65625 376.773438 C 526.292969 375.320312 525.964844 373.859375 525.671875 372.390625 C 525.378906 370.921875 525.125 369.449219 524.902344 367.964844 C 524.683594 366.484375 524.5 365 524.355469 363.507812 C 524.207031 362.019531 524.097656 360.527344 524.023438 359.03125 C 523.949219 357.535156 523.914062 356.039062 523.914062 354.539062 C 523.914062 353.042969 523.949219 351.546875 524.023438 350.050781 C 524.097656 348.554688 524.207031 347.0625 524.355469 345.570312 C 524.5 344.082031 524.683594 342.597656 524.902344 341.113281 C 525.125 339.632812 525.378906 338.160156 525.671875 336.691406 C 525.964844 335.222656 526.292969 333.761719 526.65625 332.308594 C 527.019531 330.855469 527.417969 329.414062 527.851562 327.980469 C 528.289062 326.546875 528.757812 325.125 529.261719 323.714844 C 529.765625 322.304688 530.304688 320.910156 530.878906 319.523438 C 531.453125 318.140625 532.058594 316.773438 532.699219 315.417969 C 533.339844 314.066406 534.011719 312.730469 534.71875 311.40625 C 535.421875 310.085938 536.160156 308.785156 536.929688 307.5 C 537.699219 306.214844 538.5 304.949219 539.332031 303.707031 C 540.164062 302.460938 541.027344 301.238281 541.917969 300.035156 C 542.8125 298.832031 543.734375 297.652344 544.683594 296.492188 C 545.632812 295.335938 546.609375 294.203125 547.617188 293.09375 C 548.621094 291.984375 549.652344 290.898438 550.714844 289.839844 C 551.773438 288.78125 552.855469 287.75 553.964844 286.742188 C 555.074219 285.738281 556.207031 284.761719 557.367188 283.808594 C 558.523438 282.859375 559.703125 281.9375 560.90625 281.046875 C 562.109375 280.15625 563.332031 279.292969 564.578125 278.460938 C 565.824219 277.628906 567.089844 276.828125 568.371094 276.058594 C 569.65625 275.289062 570.960938 274.550781 572.28125 273.84375 C 573.601562 273.140625 574.9375 272.464844 576.292969 271.824219 C 577.644531 271.183594 579.015625 270.578125 580.398438 270.003906 C 581.78125 269.433594 583.179688 268.894531 584.585938 268.390625 C 585.996094 267.886719 587.417969 267.414062 588.851562 266.980469 C 590.285156 266.546875 591.726562 266.148438 593.179688 265.78125 C 594.632812 265.417969 596.09375 265.089844 597.5625 264.796875 C 599.03125 264.507812 600.507812 264.25 601.988281 264.03125 C 603.46875 263.8125 604.953125 263.628906 606.445312 263.480469 C 607.933594 263.335938 609.429688 263.222656 610.921875 263.152344 C 612.417969 263.078125 613.914062 263.039062 615.414062 263.039062 C 616.910156 263.039062 618.40625 263.078125 619.902344 263.152344 C 621.398438 263.222656 622.890625 263.335938 624.382812 263.480469 C 625.871094 263.628906 627.359375 263.8125 628.839844 264.03125 C 630.320312 264.25 631.796875 264.507812 633.265625 264.796875 C 634.734375 265.089844 636.191406 265.417969 637.644531 265.78125 C 639.097656 266.148438 640.542969 266.546875 641.972656 266.980469 C 643.40625 267.414062 644.828125 267.886719 646.238281 268.390625 C 647.648438 268.894531 649.046875 269.433594 650.429688 270.003906 C 651.8125 270.578125 653.179688 271.183594 654.535156 271.824219 C 655.886719 272.464844 657.226562 273.140625 658.546875 273.84375 C 659.867188 274.550781 661.167969 275.289062 662.453125 276.058594 C 663.738281 276.828125 665.003906 277.628906 666.246094 278.460938 C 667.492188 279.292969 668.71875 280.15625 669.917969 281.046875 C 671.121094 281.9375 672.300781 282.859375 673.460938 283.808594 C 674.617188 284.761719 675.75 285.738281 676.859375 286.742188 C 677.96875 287.75 679.054688 288.78125 680.113281 289.839844 C 681.171875 290.898438 682.203125 291.984375 683.210938 293.09375 C 684.214844 294.203125 685.195312 295.335938 686.144531 296.492188 C 687.09375 297.652344 688.015625 298.832031 688.90625 300.035156 C 689.796875 301.238281 690.660156 302.460938 691.492188 303.707031 C 692.324219 304.949219 693.125 306.214844 693.894531 307.5 C 694.664062 308.785156 695.402344 310.085938 696.109375 311.40625 C 696.816406 312.730469 697.488281 314.066406 698.128906 315.417969 C 698.769531 316.773438 699.375 318.140625 699.949219 319.523438 C 700.519531 320.910156 701.058594 322.304688 701.5625 323.714844 C 702.070312 325.125 702.539062 326.546875 702.972656 327.980469 C 703.40625 329.414062 703.808594 330.855469 704.171875 332.308594 C 704.535156 333.761719 704.863281 335.222656 705.15625 336.691406 C 705.445312 338.160156 705.703125 339.632812 705.921875 341.113281 C 706.140625 342.597656 706.324219 344.082031 706.472656 345.570312 C 706.621094 347.0625 706.730469 348.554688 706.804688 350.050781 C 706.875 351.546875 706.914062 353.042969 706.914062 354.539062 Z M 706.914062 354.539062 " fill-opacity="1" fill-rule="nonzero"/></g><g clip-path="url(#18a2769033)"><path fill="#ff5454" d="M 377.578125 604.84375 C 377.578125 606.34375 377.539062 607.839844 377.46875 609.335938 C 377.394531 610.832031 377.285156 612.324219 377.136719 613.8125 C 376.988281 615.304688 376.804688 616.789062 376.585938 618.269531 C 376.367188 619.753906 376.109375 621.226562 375.820312 622.695312 C 375.527344 624.164062 375.199219 625.625 374.835938 627.078125 C 374.472656 628.53125 374.070312 629.972656 373.636719 631.40625 C 373.203125 632.839844 372.734375 634.261719 372.226562 635.671875 C 371.722656 637.082031 371.183594 638.476562 370.613281 639.859375 C 370.039062 641.246094 369.433594 642.613281 368.792969 643.96875 C 368.152344 645.320312 367.480469 646.65625 366.773438 647.976562 C 366.066406 649.300781 365.328125 650.601562 364.558594 651.886719 C 363.789062 653.171875 362.988281 654.433594 362.15625 655.679688 C 361.324219 656.925781 360.460938 658.148438 359.570312 659.351562 C 358.679688 660.554688 357.757812 661.734375 356.808594 662.890625 C 355.859375 664.050781 354.878906 665.183594 353.875 666.292969 C 352.867188 667.402344 351.835938 668.488281 350.777344 669.546875 C 349.71875 670.605469 348.632812 671.636719 347.523438 672.644531 C 346.414062 673.648438 345.28125 674.625 344.125 675.574219 C 342.964844 676.527344 341.785156 677.445312 340.582031 678.339844 C 339.378906 679.230469 338.15625 680.09375 336.910156 680.925781 C 335.667969 681.757812 334.402344 682.558594 333.117188 683.328125 C 331.832031 684.097656 330.53125 684.835938 329.210938 685.542969 C 327.890625 686.246094 326.550781 686.921875 325.199219 687.5625 C 323.84375 688.199219 322.476562 688.808594 321.09375 689.378906 C 319.710938 689.953125 318.3125 690.492188 316.902344 690.996094 C 315.492188 691.5 314.070312 691.972656 312.636719 692.40625 C 311.207031 692.839844 309.761719 693.238281 308.308594 693.601562 C 306.855469 693.96875 305.398438 694.296875 303.929688 694.585938 C 302.460938 694.878906 300.984375 695.136719 299.503906 695.355469 C 298.023438 695.574219 296.535156 695.757812 295.046875 695.90625 C 293.554688 696.050781 292.0625 696.160156 290.566406 696.234375 C 289.070312 696.308594 287.574219 696.34375 286.078125 696.34375 C 284.578125 696.34375 283.082031 696.308594 281.585938 696.234375 C 280.089844 696.160156 278.597656 696.050781 277.109375 695.90625 C 275.617188 695.757812 274.132812 695.574219 272.652344 695.355469 C 271.171875 695.136719 269.695312 694.878906 268.226562 694.585938 C 266.757812 694.296875 265.296875 693.96875 263.84375 693.601562 C 262.390625 693.238281 260.949219 692.839844 259.515625 692.40625 C 258.082031 691.972656 256.660156 691.5 255.25 690.996094 C 253.839844 690.492188 252.445312 689.953125 251.0625 689.378906 C 249.679688 688.808594 248.308594 688.199219 246.957031 687.5625 C 245.601562 686.921875 244.265625 686.246094 242.945312 685.542969 C 241.625 684.835938 240.320312 684.097656 239.035156 683.328125 C 237.753906 682.558594 236.488281 681.757812 235.242188 680.925781 C 233.996094 680.09375 232.773438 679.230469 231.570312 678.339844 C 230.367188 677.445312 229.1875 676.527344 228.03125 675.574219 C 226.871094 674.625 225.738281 673.648438 224.628906 672.640625 C 223.519531 671.636719 222.4375 670.605469 221.375 669.546875 C 220.316406 668.488281 219.285156 667.402344 218.28125 666.292969 C 217.273438 665.183594 216.296875 664.050781 215.347656 662.890625 C 214.398438 661.734375 213.476562 660.554688 212.582031 659.351562 C 211.691406 658.148438 210.828125 656.925781 209.996094 655.679688 C 209.164062 654.433594 208.363281 653.171875 207.59375 651.886719 C 206.824219 650.601562 206.085938 649.300781 205.382812 647.976562 C 204.675781 646.65625 204.003906 645.320312 203.363281 643.96875 C 202.722656 642.613281 202.113281 641.246094 201.542969 639.859375 C 200.96875 638.476562 200.429688 637.082031 199.925781 635.671875 C 199.421875 634.261719 198.953125 632.839844 198.515625 631.40625 C 198.082031 629.972656 197.683594 628.53125 197.320312 627.078125 C 196.957031 625.625 196.628906 624.164062 196.335938 622.695312 C 196.042969 621.226562 195.789062 619.753906 195.566406 618.269531 C 195.347656 616.789062 195.164062 615.304688 195.019531 613.8125 C 194.871094 612.324219 194.761719 610.832031 194.6875 609.335938 C 194.613281 607.839844 194.578125 606.34375 194.578125 604.84375 C 194.578125 603.347656 194.613281 601.851562 194.6875 600.355469 C 194.761719 598.859375 194.871094 597.367188 195.019531 595.878906 C 195.164062 594.386719 195.347656 592.902344 195.566406 591.417969 C 195.789062 589.9375 196.042969 588.464844 196.335938 586.996094 C 196.628906 585.527344 196.957031 584.066406 197.320312 582.613281 C 197.683594 581.160156 198.082031 579.71875 198.515625 578.285156 C 198.953125 576.851562 199.421875 575.429688 199.925781 574.019531 C 200.429688 572.609375 200.96875 571.214844 201.542969 569.828125 C 202.113281 568.445312 202.722656 567.078125 203.363281 565.722656 C 204.003906 564.371094 204.675781 563.035156 205.382812 561.710938 C 206.085938 560.390625 206.824219 559.089844 207.59375 557.804688 C 208.363281 556.519531 209.164062 555.257812 209.996094 554.011719 C 210.828125 552.765625 211.691406 551.542969 212.582031 550.339844 C 213.476562 549.136719 214.398438 547.957031 215.347656 546.796875 C 216.296875 545.640625 217.273438 544.507812 218.28125 543.398438 C 219.285156 542.289062 220.316406 541.203125 221.375 540.144531 C 222.4375 539.085938 223.519531 538.054688 224.628906 537.046875 C 225.738281 536.042969 226.871094 535.066406 228.03125 534.113281 C 229.1875 533.164062 230.367188 532.242188 231.570312 531.351562 C 232.773438 530.460938 233.996094 529.597656 235.242188 528.765625 C 236.488281 527.933594 237.753906 527.132812 239.035156 526.363281 C 240.320312 525.59375 241.625 524.855469 242.945312 524.148438 C 244.265625 523.445312 245.601562 522.769531 246.957031 522.128906 C 248.308594 521.492188 249.679688 520.882812 251.0625 520.3125 C 252.445312 519.738281 253.839844 519.199219 255.25 518.695312 C 256.660156 518.191406 258.082031 517.71875 259.515625 517.285156 C 260.949219 516.851562 262.390625 516.453125 263.84375 516.085938 C 265.296875 515.722656 266.757812 515.394531 268.226562 515.105469 C 269.695312 514.8125 271.171875 514.554688 272.652344 514.335938 C 274.132812 514.117188 275.617188 513.933594 277.109375 513.785156 C 278.597656 513.640625 280.089844 513.527344 281.585938 513.457031 C 283.082031 513.382812 284.578125 513.34375 286.078125 513.34375 C 287.574219 513.34375 289.070312 513.382812 290.566406 513.457031 C 292.0625 513.527344 293.554688 513.640625 295.046875 513.785156 C 296.535156 513.933594 298.023438 514.117188 299.503906 514.335938 C 300.984375 514.554688 302.460938 514.8125 303.929688 515.105469 C 305.398438 515.394531 306.855469 515.722656 308.308594 516.085938 C 309.761719 516.453125 311.207031 516.851562 312.636719 517.285156 C 314.070312 517.71875 315.492188 518.191406 316.902344 518.695312 C 318.3125 519.199219 319.710938 519.738281 321.09375 520.3125 C 322.476562 520.882812 323.84375 521.492188 325.199219 522.128906 C 326.550781 522.769531 327.890625 523.445312 329.210938 524.148438 C 330.53125 524.855469 331.832031 525.59375 333.117188 526.363281 C 334.402344 527.132812 335.667969 527.933594 336.910156 528.765625 C 338.15625 529.597656 339.378906 530.460938 340.582031 531.351562 C 341.785156 532.242188 342.964844 533.164062 344.125 534.113281 C 345.28125 535.066406 346.414062 536.042969 347.523438 537.046875 C 348.632812 538.054688 349.71875 539.085938 350.777344 540.144531 C 351.835938 541.203125 352.867188 542.289062 353.875 543.398438 C 354.878906 544.507812 355.859375 545.640625 356.808594 546.796875 C 357.757812 547.957031 358.679688 549.136719 359.570312 550.339844 C 360.460938 551.542969 361.324219 552.765625 362.15625 554.011719 C 362.988281 555.257812 363.789062 556.519531 364.558594 557.804688 C 365.328125 559.089844 366.066406 560.390625 366.773438 561.710938 C 367.480469 563.035156 368.152344 564.371094 368.792969 565.722656 C 369.433594 567.078125 370.039062 568.445312 370.613281 569.828125 C 371.183594 571.214844 371.722656 572.609375 372.226562 574.019531 C 372.734375 575.429688 373.203125 576.851562 373.636719 578.285156 C 374.070312 579.71875 374.472656 581.160156 374.835938 582.613281 C 375.199219 584.066406 375.527344 585.527344 375.820312 586.996094 C 376.109375 588.464844 376.367188 589.9375 376.585938 591.417969 C 376.804688 592.902344 376.988281 594.386719 377.136719 595.878906 C 377.285156 597.367188 377.394531 598.859375 377.46875 600.355469 C 377.539062 601.851562 377.578125 603.347656 377.578125 604.84375 Z M 377.578125 604.84375 " fill-opacity="1" fill-rule="nonzero"/></g><g clip-path="url(#d8012376e2)"><path fill="#e87731" d="M 632.464844 604.84375 C 632.464844 606.34375 632.425781 607.839844 632.355469 609.335938 C 632.28125 610.832031 632.171875 612.324219 632.023438 613.8125 C 631.875 615.304688 631.691406 616.789062 631.472656 618.269531 C 631.253906 619.753906 630.996094 621.226562 630.707031 622.695312 C 630.414062 624.164062 630.085938 625.625 629.722656 627.078125 C 629.359375 628.53125 628.957031 629.972656 628.523438 631.40625 C 628.089844 632.839844 627.621094 634.261719 627.113281 635.671875 C 626.609375 637.082031 626.070312 638.476562 625.5 639.859375 C 624.925781 641.246094 624.320312 642.613281 623.679688 643.96875 C 623.039062 645.320312 622.367188 646.65625 621.660156 647.976562 C 620.953125 649.300781 620.214844 650.601562 619.445312 651.886719 C 618.675781 653.171875 617.875 654.433594 617.042969 655.679688 C 616.210938 656.925781 615.347656 658.148438 614.457031 659.351562 C 613.566406 660.554688 612.644531 661.734375 611.695312 662.890625 C 610.746094 664.050781 609.765625 665.183594 608.761719 666.292969 C 607.753906 667.402344 606.722656 668.488281 605.664062 669.546875 C 604.605469 670.605469 603.519531 671.636719 602.410156 672.644531 C 601.300781 673.648438 600.167969 674.625 599.011719 675.574219 C 597.851562 676.527344 596.671875 677.445312 595.46875 678.339844 C 594.265625 679.230469 593.042969 680.09375 591.796875 680.925781 C 590.554688 681.757812 589.289062 682.558594 588.003906 683.328125 C 586.71875 684.097656 585.417969 684.835938 584.097656 685.542969 C 582.777344 686.246094 581.4375 686.921875 580.085938 687.5625 C 578.730469 688.199219 577.363281 688.808594 575.980469 689.378906 C 574.597656 689.953125 573.199219 690.492188 571.789062 690.996094 C 570.378906 691.5 568.957031 691.972656 567.523438 692.40625 C 566.09375 692.839844 564.648438 693.238281 563.195312 693.601562 C 561.742188 693.96875 560.285156 694.296875 558.816406 694.585938 C 557.347656 694.878906 555.871094 695.136719 554.390625 695.355469 C 552.910156 695.574219 551.421875 695.757812 549.933594 695.90625 C 548.441406 696.050781 546.949219 696.160156 545.453125 696.234375 C 543.957031 696.308594 542.460938 696.34375 540.964844 696.34375 C 539.464844 696.34375 537.96875 696.308594 536.472656 696.234375 C 534.976562 696.160156 533.484375 696.050781 531.996094 695.90625 C 530.503906 695.757812 529.019531 695.574219 527.539062 695.355469 C 526.058594 695.136719 524.582031 694.878906 523.113281 694.585938 C 521.644531 694.296875 520.183594 693.96875 518.730469 693.601562 C 517.277344 693.238281 515.835938 692.839844 514.402344 692.40625 C 512.96875 691.972656 511.546875 691.5 510.136719 690.996094 C 508.726562 690.492188 507.332031 689.953125 505.949219 689.378906 C 504.566406 688.808594 503.195312 688.199219 501.84375 687.5625 C 500.488281 686.921875 499.152344 686.246094 497.832031 685.542969 C 496.511719 684.835938 495.207031 684.097656 493.921875 683.328125 C 492.640625 682.558594 491.375 681.757812 490.128906 680.925781 C 488.882812 680.09375 487.660156 679.230469 486.457031 678.339844 C 485.253906 677.445312 484.074219 676.527344 482.917969 675.574219 C 481.757812 674.625 480.625 673.648438 479.515625 672.640625 C 478.40625 671.636719 477.324219 670.605469 476.261719 669.546875 C 475.203125 668.488281 474.171875 667.402344 473.167969 666.292969 C 472.160156 665.183594 471.183594 664.050781 470.234375 662.890625 C 469.285156 661.734375 468.363281 660.554688 467.46875 659.351562 C 466.578125 658.148438 465.714844 656.925781 464.882812 655.679688 C 464.050781 654.433594 463.25 653.171875 462.480469 651.886719 C 461.710938 650.601562 460.972656 649.300781 460.269531 647.976562 C 459.5625 646.65625 458.890625 645.320312 458.25 643.96875 C 457.609375 642.613281 457 641.246094 456.429688 639.859375 C 455.855469 638.476562 455.316406 637.082031 454.8125 635.671875 C 454.308594 634.261719 453.839844 632.839844 453.402344 631.40625 C 452.96875 629.972656 452.570312 628.53125 452.207031 627.078125 C 451.84375 625.625 451.515625 624.164062 451.222656 622.695312 C 450.929688 621.226562 450.675781 619.753906 450.453125 618.269531 C 450.234375 616.789062 450.050781 615.304688 449.90625 613.8125 C 449.757812 612.324219 449.648438 610.832031 449.574219 609.335938 C 449.5 607.839844 449.464844 606.34375 449.464844 604.84375 C 449.464844 603.347656 449.5 601.851562 449.574219 600.355469 C 449.648438 598.859375 449.757812 597.367188 449.90625 595.878906 C 450.050781 594.386719 450.234375 592.902344 450.453125 591.417969 C 450.675781 589.9375 450.929688 588.464844 451.222656 586.996094 C 451.515625 585.527344 451.84375 584.066406 452.207031 582.613281 C 452.570312 581.160156 452.96875 579.71875 453.402344 578.285156 C 453.839844 576.851562 454.308594 575.429688 454.8125 574.019531 C 455.316406 572.609375 455.855469 571.214844 456.429688 569.828125 C 457 568.445312 457.609375 567.078125 458.25 565.722656 C 458.890625 564.371094 459.5625 563.035156 460.269531 561.710938 C 460.972656 560.390625 461.710938 559.089844 462.480469 557.804688 C 463.25 556.519531 464.050781 555.257812 464.882812 554.011719 C 465.714844 552.765625 466.578125 551.542969 467.46875 550.339844 C 468.363281 549.136719 469.285156 547.957031 470.234375 546.796875 C 471.183594 545.640625 472.160156 544.507812 473.167969 543.398438 C 474.171875 542.289062 475.203125 541.203125 476.261719 540.144531 C 477.324219 539.085938 478.40625 538.054688 479.515625 537.046875 C 480.625 536.042969 481.757812 535.066406 482.917969 534.113281 C 484.074219 533.164062 485.253906 532.242188 486.457031 531.351562 C 487.660156 530.460938 488.882812 529.597656 490.128906 528.765625 C 491.375 527.933594 492.640625 527.132812 493.921875 526.363281 C 495.207031 525.59375 496.511719 524.855469 497.832031 524.148438 C 499.152344 523.445312 500.488281 522.769531 501.84375 522.128906 C 503.195312 521.492188 504.566406 520.882812 505.949219 520.3125 C 507.332031 519.738281 508.726562 519.199219 510.136719 518.695312 C 511.546875 518.191406 512.96875 517.71875 514.402344 517.285156 C 515.835938 516.851562 517.277344 516.453125 518.730469 516.085938 C 520.183594 515.722656 521.644531 515.394531 523.113281 515.105469 C 524.582031 514.8125 526.058594 514.554688 527.539062 514.335938 C 529.019531 514.117188 530.503906 513.933594 531.996094 513.785156 C 533.484375 513.640625 534.976562 513.527344 536.472656 513.457031 C 537.96875 513.382812 539.464844 513.34375 540.964844 513.34375 C 542.460938 513.34375 543.957031 513.382812 545.453125 513.457031 C 546.949219 513.527344 548.441406 513.640625 549.933594 513.785156 C 551.421875 513.933594 552.910156 514.117188 554.390625 514.335938 C 555.871094 514.554688 557.347656 514.8125 558.816406 515.105469 C 560.285156 515.394531 561.742188 515.722656 563.195312 516.085938 C 564.648438 516.453125 566.09375 516.851562 567.523438 517.285156 C 568.957031 517.71875 570.378906 518.191406 571.789062 518.695312 C 573.199219 519.199219 574.597656 519.738281 575.980469 520.3125 C 577.363281 520.882812 578.730469 521.492188 580.085938 522.128906 C 581.4375 522.769531 582.777344 523.445312 584.097656 524.148438 C 585.417969 524.855469 586.71875 525.59375 588.003906 526.363281 C 589.289062 527.132812 590.554688 527.933594 591.796875 528.765625 C 593.042969 529.597656 594.265625 530.460938 595.46875 531.351562 C 596.671875 532.242188 597.851562 533.164062 599.011719 534.113281 C 600.167969 535.066406 601.300781 536.042969 602.410156 537.046875 C 603.519531 538.054688 604.605469 539.085938 605.664062 540.144531 C 606.722656 541.203125 607.753906 542.289062 608.761719 543.398438 C 609.765625 544.507812 610.746094 545.640625 611.695312 546.796875 C 612.644531 547.957031 613.566406 549.136719 614.457031 550.339844 C 615.347656 551.542969 616.210938 552.765625 617.042969 554.011719 C 617.875 555.257812 618.675781 556.519531 619.445312 557.804688 C 620.214844 559.089844 620.953125 560.390625 621.660156 561.710938 C 622.367188 563.035156 623.039062 564.371094 623.679688 565.722656 C 624.320312 567.078125 624.925781 568.445312 625.5 569.828125 C 626.070312 571.214844 626.609375 572.609375 627.113281 574.019531 C 627.621094 575.429688 628.089844 576.851562 628.523438 578.285156 C 628.957031 579.71875 629.359375 581.160156 629.722656 582.613281 C 630.085938 584.066406 630.414062 585.527344 630.707031 586.996094 C 630.996094 588.464844 631.253906 589.9375 631.472656 591.417969 C 631.691406 592.902344 631.875 594.386719 632.023438 595.878906 C 632.171875 597.367188 632.28125 598.859375 632.355469 600.355469 C 632.425781 601.851562 632.464844 603.347656 632.464844 604.84375 Z M 632.464844 604.84375 " fill-opacity="1" fill-rule="nonzero"/></g><g clip-path="url(#40dbc65d21)"><path fill="#000000" d="M 496.492188 205.136719 C 496.492188 206.632812 496.453125 208.128906 496.378906 209.625 C 496.304688 211.121094 496.195312 212.613281 496.050781 214.105469 C 495.902344 215.59375 495.71875 217.078125 495.5 218.5625 C 495.28125 220.042969 495.023438 221.515625 494.730469 222.984375 C 494.441406 224.453125 494.113281 225.914062 493.75 227.367188 C 493.382812 228.820312 492.984375 230.261719 492.550781 231.695312 C 492.117188 233.128906 491.644531 234.550781 491.140625 235.960938 C 490.636719 237.371094 490.097656 238.765625 489.523438 240.152344 C 488.953125 241.535156 488.34375 242.902344 487.707031 244.257812 C 487.066406 245.609375 486.390625 246.945312 485.6875 248.269531 C 484.980469 249.589844 484.242188 250.890625 483.472656 252.175781 C 482.703125 253.460938 481.902344 254.722656 481.070312 255.96875 C 480.238281 257.214844 479.375 258.4375 478.484375 259.640625 C 477.589844 260.84375 476.671875 262.023438 475.722656 263.183594 C 474.769531 264.339844 473.792969 265.472656 472.789062 266.582031 C 471.78125 267.691406 470.75 268.777344 469.691406 269.835938 C 468.632812 270.894531 467.546875 271.925781 466.4375 272.933594 C 465.328125 273.9375 464.195312 274.914062 463.039062 275.867188 C 461.878906 276.816406 460.699219 277.738281 459.496094 278.628906 C 458.292969 279.519531 457.070312 280.382812 455.824219 281.214844 C 454.578125 282.046875 453.316406 282.847656 452.03125 283.617188 C 450.746094 284.386719 449.445312 285.125 448.125 285.832031 C 446.800781 286.535156 445.464844 287.210938 444.113281 287.851562 C 442.757812 288.488281 441.390625 289.097656 440.003906 289.667969 C 438.621094 290.242188 437.226562 290.78125 435.816406 291.285156 C 434.40625 291.789062 432.984375 292.261719 431.550781 292.695312 C 430.117188 293.128906 428.675781 293.527344 427.222656 293.894531 C 425.769531 294.257812 424.308594 294.585938 422.839844 294.875 C 421.371094 295.167969 419.898438 295.425781 418.417969 295.644531 C 416.933594 295.863281 415.449219 296.046875 413.957031 296.195312 C 412.46875 296.339844 410.976562 296.453125 409.480469 296.523438 C 407.984375 296.597656 406.488281 296.636719 404.992188 296.636719 C 403.492188 296.636719 401.996094 296.597656 400.5 296.523438 C 399.003906 296.453125 397.511719 296.339844 396.023438 296.195312 C 394.53125 296.046875 393.046875 295.863281 391.5625 295.644531 C 390.082031 295.425781 388.609375 295.167969 387.140625 294.875 C 385.671875 294.585938 384.210938 294.257812 382.757812 293.894531 C 381.304688 293.527344 379.863281 293.128906 378.429688 292.695312 C 376.996094 292.261719 375.574219 291.789062 374.164062 291.285156 C 372.753906 290.78125 371.359375 290.242188 369.976562 289.667969 C 368.589844 289.097656 367.222656 288.488281 365.867188 287.851562 C 364.515625 287.210938 363.179688 286.535156 361.859375 285.832031 C 360.535156 285.125 359.234375 284.386719 357.949219 283.617188 C 356.664062 282.847656 355.402344 282.046875 354.15625 281.214844 C 352.910156 280.382812 351.6875 279.519531 350.484375 278.628906 C 349.28125 277.738281 348.101562 276.816406 346.941406 275.867188 C 345.785156 274.914062 344.652344 273.9375 343.542969 272.933594 C 342.433594 271.925781 341.347656 270.894531 340.289062 269.835938 C 339.230469 268.777344 338.199219 267.691406 337.191406 266.582031 C 336.1875 265.472656 335.210938 264.339844 334.261719 263.183594 C 333.308594 262.023438 332.390625 260.84375 331.496094 259.640625 C 330.605469 258.4375 329.742188 257.214844 328.910156 255.96875 C 328.078125 254.722656 327.277344 253.460938 326.507812 252.175781 C 325.738281 250.890625 325 249.589844 324.292969 248.269531 C 323.589844 246.945312 322.914062 245.609375 322.273438 244.257812 C 321.636719 242.902344 321.027344 241.535156 320.457031 240.152344 C 319.882812 238.765625 319.34375 237.371094 318.839844 235.960938 C 318.335938 234.550781 317.863281 233.128906 317.429688 231.695312 C 316.996094 230.261719 316.597656 228.820312 316.230469 227.367188 C 315.867188 225.914062 315.539062 224.453125 315.25 222.984375 C 314.957031 221.515625 314.699219 220.042969 314.480469 218.5625 C 314.261719 217.078125 314.078125 215.59375 313.929688 214.105469 C 313.785156 212.613281 313.675781 211.121094 313.601562 209.625 C 313.527344 208.128906 313.492188 206.632812 313.492188 205.136719 C 313.492188 203.636719 313.527344 202.140625 313.601562 200.644531 C 313.675781 199.148438 313.785156 197.65625 313.929688 196.167969 C 314.078125 194.675781 314.261719 193.191406 314.480469 191.710938 C 314.699219 190.226562 314.957031 188.753906 315.25 187.285156 C 315.539062 185.816406 315.867188 184.355469 316.230469 182.902344 C 316.597656 181.449219 316.996094 180.007812 317.429688 178.574219 C 317.863281 177.140625 318.335938 175.71875 318.839844 174.308594 C 319.34375 172.898438 319.882812 171.503906 320.457031 170.121094 C 321.027344 168.734375 321.636719 167.367188 322.273438 166.011719 C 322.914062 164.660156 323.589844 163.324219 324.292969 162.003906 C 325 160.679688 325.738281 159.378906 326.507812 158.09375 C 327.277344 156.808594 328.078125 155.546875 328.910156 154.300781 C 329.742188 153.054688 330.605469 151.832031 331.496094 150.628906 C 332.390625 149.425781 333.308594 148.246094 334.261719 147.089844 C 335.210938 145.929688 336.1875 144.796875 337.191406 143.6875 C 338.199219 142.578125 339.230469 141.492188 340.289062 140.433594 C 341.347656 139.375 342.433594 138.34375 343.542969 137.339844 C 344.652344 136.332031 345.785156 135.355469 346.941406 134.40625 C 348.101562 133.453125 349.28125 132.535156 350.484375 131.640625 C 351.6875 130.75 352.910156 129.886719 354.15625 129.054688 C 355.402344 128.222656 356.664062 127.421875 357.949219 126.652344 C 359.234375 125.882812 360.535156 125.144531 361.859375 124.4375 C 363.179688 123.734375 364.515625 123.058594 365.867188 122.421875 C 367.222656 121.78125 368.589844 121.171875 369.976562 120.601562 C 371.359375 120.027344 372.753906 119.488281 374.164062 118.984375 C 375.574219 118.480469 376.996094 118.007812 378.429688 117.574219 C 379.863281 117.140625 381.304688 116.742188 382.757812 116.378906 C 384.210938 116.011719 385.671875 115.683594 387.140625 115.394531 C 388.609375 115.101562 390.082031 114.84375 391.5625 114.625 C 393.046875 114.40625 394.53125 114.222656 396.023438 114.074219 C 397.511719 113.929688 399.003906 113.820312 400.5 113.746094 C 401.996094 113.671875 403.492188 113.636719 404.992188 113.636719 C 406.488281 113.636719 407.984375 113.671875 409.480469 113.746094 C 410.976562 113.820312 412.46875 113.929688 413.957031 114.074219 C 415.449219 114.222656 416.933594 114.40625 418.417969 114.625 C 419.898438 114.84375 421.371094 115.101562 422.839844 115.394531 C 424.308594 115.683594 425.769531 116.011719 427.222656 116.378906 C 428.675781 116.742188 430.117188 117.140625 431.550781 117.574219 C 432.984375 118.007812 434.40625 118.480469 435.816406 118.984375 C 437.226562 119.488281 438.621094 120.027344 440.003906 120.601562 C 441.390625 121.171875 442.757812 121.78125 444.113281 122.421875 C 445.464844 123.058594 446.800781 123.734375 448.125 124.4375 C 449.445312 125.144531 450.746094 125.882812 452.03125 126.652344 C 453.316406 127.421875 454.578125 128.222656 455.824219 129.054688 C 457.070312 129.886719 458.292969 130.75 459.496094 131.640625 C 460.699219 132.535156 461.878906 133.453125 463.039062 134.40625 C 464.195312 135.355469 465.328125 136.332031 466.4375 137.339844 C 467.546875 138.34375 468.632812 139.375 469.691406 140.433594 C 470.75 141.492188 471.78125 142.578125 472.789062 143.6875 C 473.792969 144.796875 474.769531 145.929688 475.722656 147.089844 C 476.671875 148.246094 477.589844 149.425781 478.484375 150.628906 C 479.375 151.832031 480.238281 153.054688 481.070312 154.300781 C 481.902344 155.546875 482.703125 156.808594 483.472656 158.09375 C 484.242188 159.378906 484.980469 160.679688 485.6875 162.003906 C 486.390625 163.324219 487.066406 164.660156 487.707031 166.011719 C 488.34375 167.367188 488.953125 168.734375 489.523438 170.121094 C 490.097656 171.503906 490.636719 172.898438 491.140625 174.308594 C 491.644531 175.71875 492.117188 177.140625 492.550781 178.574219 C 492.984375 180.007812 493.382812 181.449219 493.75 182.902344 C 494.113281 184.355469 494.441406 185.816406 494.730469 187.285156 C 495.023438 188.753906 495.28125 190.226562 495.5 191.710938 C 495.71875 193.191406 495.902344 194.675781 496.050781 196.167969 C 496.195312 197.65625 496.304688 199.148438 496.378906 200.644531 C 496.453125 202.140625 496.492188 203.636719 496.492188 205.136719 Z M 496.492188 205.136719 " fill-opacity="1" fill-rule="nonzero"/></g></svg>